<?xml version="1.0" encoding="utf-8"?>
<!-- Generator: Adobe Illustrator 24.1.0, SVG Export Plug-In . SVG Version: 6.00 Build 0)  -->
<svg version="1.1" id="Capa_1" xmlns="http://www.w3.org/2000/svg" xmlns:xlink="http://www.w3.org/1999/xlink" x="0px" y="0px"
	 viewBox="0 0 512 512" style="enable-background:new 0 0 512 512;" xml:space="preserve">
<style type="text/css">
	.st0{fill:#FF8767;}
</style>
<g>
	<path class="st0" d="M316.7,192.6l39.7,32.4c2.2,1.7,4.2,2.2,5.9,2.2c1.2,0,2.1-0.3,2.8-0.5c3-1.1,5-3.7,5.7-7.7l5.3-26.7
		c18.5-1.6,35.6-9.9,48.6-23.4c13.9-14.4,21.5-33.4,21.5-53.3c0-42.4-34.5-77-77-77h-48.7V25.1c0-13.9-11.3-25.1-25.1-25.1h-81.8
		c-4.1,0-7.5,3.4-7.5,7.5s3.4,7.5,7.5,7.5h81.8c5.6,0,10.1,4.5,10.1,10.1v21v84.3c0,5.5-4.6,10.1-10.1,10.1h-57.6h-70.1
		c0,0-0.1,0-0.1,0c-3.1,0-4.9,0.4-7.6,2.7c-0.1,0.1-0.3,0.3-0.5,0.4s-0.4,0.4-0.6,0.6l-29.5,30.3l-0.1-24.6c0-0.5,0-0.9-0.1-1.4
		l-0.1-0.3c-1.4-7.4-7.3-7.6-9.5-7.7c-0.1,0-0.2,0-0.3,0H99.2c-5.5,0-10.1-4.6-10.1-10.1V25.1c0-5.6,4.5-10.1,10.1-10.1H178
		c4.1,0,7.5-3.4,7.5-7.5S182.1,0,178,0H99.2C85.4,0,74.1,11.3,74.1,25.1v105.3c0,13.9,11.3,25.1,25.1,25.1h15.2l0.2,32.3
		c0,3.9,1.9,7.1,5.1,8.6c0.9,0.4,2.2,0.8,3.8,0.8c2.1,0,4.8-0.7,7.8-3.2c0.2-0.2,0.5-0.4,0.7-0.6l37-38h64.6
		c14,22.9,38.8,37,65.7,37H316.7z M252,155.6h43.6c13.9,0,25.1-11.3,25.1-25.1V53.6h48.7c34.2,0,62,27.8,62,62
		c0,33.3-26.1,60.5-59.3,61.9c-2.5,0.1-8.4,0.3-9.8,7.9l-4.2,21.4l-31.9-26c-0.3-0.2-0.5-0.4-0.6-0.5c-2.7-2.3-4.6-2.7-7.6-2.7
		c-0.1,0-0.1,0-0.2,0l-18.4,0C280.8,177.6,263.6,169.4,252,155.6L252,155.6z"/>
	<path class="st0" d="M260.5,45.6h-78.2c-4.1,0-7.5,3.4-7.5,7.5s3.4,7.5,7.5,7.5h78.2c4.1,0,7.5-3.4,7.5-7.5S264.6,45.6,260.5,45.6z
		"/>
	<path class="st0" d="M134.3,60.6h14.4c4.1,0,7.5-3.4,7.5-7.5s-3.4-7.5-7.5-7.5h-14.4c-4.1,0-7.5,3.4-7.5,7.5S130.1,60.6,134.3,60.6
		z"/>
	<path class="st0" d="M260.5,91.2h-14.4c-4.1,0-7.5,3.4-7.5,7.5s3.4,7.5,7.5,7.5h14.4c4.1,0,7.5-3.4,7.5-7.5S264.6,91.2,260.5,91.2z
		"/>
	<path class="st0" d="M134.3,106.2h78.2c4.1,0,7.5-3.4,7.5-7.5s-3.4-7.5-7.5-7.5h-78.2c-4.1,0-7.5,3.4-7.5,7.5
		S130.1,106.2,134.3,106.2z"/>
	<path class="st0" d="M201.7,438.4c-8.9-6.5-30.5-13.1-30.5-13.1c-2.4-0.7-10.3-2.8-11.9-3.2c-2.9-0.8-4.8-4.4-6.2-7.8
		c23.3-15.4,40.7-42.3,40.7-65.7v-21.4c0-26.1-8.3-48.2-24-63.9c-14-14.1-32.9-22-53.2-22.3c-0.1,0-0.2,0-0.3,0
		c-20.3,0.3-39.2,8.3-53.2,22.3c-15.7,15.8-24,37.9-24,63.9v21.4c0,23.4,17.4,50.3,40.7,65.7c-1.4,3.4-3.3,7-6.2,7.8
		c-1.5,0.4-12,3.2-12.1,3.3c-10.7,3-21.4,6.6-30.3,13.1C18,448,11.5,461.8,11.5,480.5v18.4c0,7.2,5.9,13.1,13.1,13.1h74.6
		c4.1,0,7.5-3.4,7.5-7.5s-3.4-7.5-7.5-7.5H26.5v-16.5c0-24.7,13.5-33,36.2-39.8l40.4,23.7c4.9,3.1,9.1,4.7,13.4,4.7
		s8.5-1.6,13.4-4.7l40.4-23.7c22.8,6.9,36.2,15.1,36.2,39.8V497h-72.5c-4.1,0-7.5,3.4-7.5,7.5s3.4,7.5,7.5,7.5h74.4
		c7.2,0,13.1-5.9,13.1-13.1v-18.4C221.6,461.8,215.1,448,201.7,438.4L201.7,438.4z M116.5,255.9c28.1,0.5,58.2,20.3,62,62.2
		c-5.7-1.9-8.8-5.1-12.1-8.4c-5.2-5.3-11.7-11.9-25.5-8.4c-3.5,0.9-6.4,1.7-9,2.4c-8,2.1-12,3.2-15.4,3.2c-3.4,0-7.4-1.1-15.4-3.2
		c-2.6-0.7-5.5-1.5-9-2.4c-13.8-3.5-20.3,3.1-25.5,8.4c-3.3,3.3-6.4,6.5-12.1,8.4C58.3,276.1,88.4,256.4,116.5,255.9L116.5,255.9z
		 M54.2,348.5v-14.8c12.4-2.5,18.5-8.7,23.2-13.5c4.4-4.5,5.6-5.7,11-4.3c3.4,0.9,6.3,1.7,8.9,2.3c9,2.4,13.9,3.7,19.3,3.7
		c5.3,0,10.3-1.3,19.3-3.7c2.5-0.7,5.5-1.5,8.9-2.3c5.4-1.4,6.6-0.2,11,4.3c4.7,4.7,10.8,11,23.2,13.5v14.8
		c0,22.7-22.2,50.8-47.5,60.2c-11,4.1-18.8,4.1-29.8,0C76.3,399.2,54.2,371.1,54.2,348.5z M122.2,451.5c-0.1,0.1-0.2,0.1-0.3,0.2
		c-4.9,3.2-5.9,3.2-10.8,0c-0.1-0.1-0.2-0.1-0.3-0.2l-28.7-16.9c5.7-3.2,8.9-8.6,11-13.3c1.1,0.5,2.2,0.9,3.3,1.3
		c7.1,2.6,13.6,4,20.1,4c6.5,0,13-1.3,20.1-4c1.1-0.4,2.2-0.9,3.3-1.3c2.1,4.7,5.3,10.1,11,13.3L122.2,451.5z"/>
	<path class="st0" d="M480.7,438.4c-11-8-24.7-11.6-37.8-15.1c-1.5-0.4-3.1-0.8-4.6-1.2c-2.9-0.8-4.8-4.4-6.2-7.8
		c23.3-15.4,40.7-42.3,40.7-65.7v-21.4c0-26.1-8.3-48.2-24-63.9c-14-14.1-32.9-22-53.2-22.3c-0.1,0-0.2,0-0.3,0
		c-20.3,0.3-39.2,8.3-53.2,22.3c-15.7,15.8-24,37.9-24,63.9v21.4c0,23.4,17.4,50.3,40.7,65.7c-1.4,3.4-3.3,7-6.2,7.8
		c-1.5,0.4-3,0.8-4.6,1.2c-13.2,3.5-26.8,7.2-37.8,15.1c-13.3,9.6-19.8,23.4-19.8,42.1v18.4c0,7.2,5.9,13.1,13.1,13.1h77.9
		c4.1,0,7.5-3.4,7.5-7.5s-3.4-7.5-7.5-7.5h-76v-16.5c0-24.7,13.5-33,36.2-39.8l40.4,23.7c4.9,3.1,9.1,4.7,13.4,4.7
		c4.3,0,8.5-1.6,13.4-4.7l40.4-23.7c22.8,6.9,36.2,15.1,36.2,39.8V497h-69.6c-4.1,0-7.5,3.4-7.5,7.5s3.4,7.5,7.5,7.5h71.5
		c7.2,0,13.1-5.9,13.1-13.1v-18.4C500.5,461.8,494,448,480.7,438.4L480.7,438.4z M395.5,255.9c28.1,0.5,58.2,20.3,62,62.2
		c-5.7-1.9-8.8-5.1-12.1-8.4c-4.2-4.3-9.2-9.4-18.1-9.4c-2.2,0-4.6,0.3-7.3,1c-3.5,0.9-6.4,1.7-9,2.4c-8,2.1-12,3.2-15.4,3.2
		s-7.4-1.1-15.4-3.2c-2.6-0.7-5.5-1.5-9-2.4c-13.8-3.5-20.3,3.1-25.5,8.4c-3.3,3.3-6.4,6.5-12.1,8.4
		C337.3,276.1,367.4,256.4,395.5,255.9L395.5,255.9z M333.1,348.5v-14.8c12.4-2.5,18.5-8.7,23.2-13.5c4.4-4.5,5.6-5.7,11-4.3
		c3.4,0.9,6.3,1.7,8.9,2.3c9,2.4,13.9,3.7,19.3,3.7s10.3-1.3,19.3-3.7c2.5-0.7,5.5-1.5,8.9-2.3c5.4-1.4,6.6-0.2,11,4.3
		c4.7,4.7,10.8,11,23.2,13.5v14.8c0,22.7-22.2,50.8-47.5,60.2c-11,4.1-18.8,4.1-29.8,0C355.3,399.2,333.1,371.1,333.1,348.5z
		 M401.2,451.5c-0.1,0.1-0.2,0.1-0.3,0.2c-4.9,3.2-5.9,3.2-10.8,0c-0.1-0.1-0.2-0.1-0.3-0.2l-28.7-16.9c5.7-3.2,8.9-8.6,11-13.3
		c1.1,0.5,2.2,0.9,3.3,1.3c7.1,2.6,13.6,4,20.1,4c6.5,0,13-1.3,20.1-4c1.1-0.4,2.2-0.9,3.3-1.3c2.1,4.7,5.3,10.1,11,13.3
		L401.2,451.5z"/>
</g>
</svg>
