<?xml version="1.0" encoding="utf-8"?>
<!-- Generator: Adobe Illustrator 24.1.0, SVG Export Plug-In . SVG Version: 6.00 Build 0)  -->
<svg version="1.1" id="Capa_1" xmlns="http://www.w3.org/2000/svg" xmlns:xlink="http://www.w3.org/1999/xlink" x="0px" y="0px"
	 viewBox="0 0 512 512" style="enable-background:new 0 0 512 512;" xml:space="preserve">
<style type="text/css">
	.st0{fill:#FF8767;}
</style>
<g>
	<g>
		<path class="st0" d="M502,290h-8V50c0-27.6-22.4-50-50-50H68C40.4,0,18,22.4,18,50v240h-8c-5.5,0-10,4.5-10,10v17
			c0,27,22,49,49,49h11.6c-7.9,16.9-8.7,36.5-1.8,54.2l33.2,85.4c1.5,4,5.3,6.4,9.3,6.4c1.2,0,2.4-0.2,3.6-0.7
			c5.1-2,7.7-7.8,5.7-12.9l-33.2-85.4c-5.8-15-3.9-31.9,5.2-45.2L99,343.5v19.4c0,5.5,4.5,10,10,10s10-4.5,10-10V198
			c0-7.7,6.3-14,14-14s14,6.3,14,14v131.7c0,5.5,4.5,10,10,10s10-4.5,10-10v-47.1c0-7.7,6.3-14,14-14s14,6.3,14,14v47.1
			c0,5.5,4.5,10,10,10s10-4.5,10-10v-47.1c0-7.7,6.3-14,14-14s14,6.3,14,14v47.1c0,5.5,4.5,10,10,10s10-4.5,10-10v-47.1v-0.1
			c0-7.7,6.3-14,14-14s14,6.3,14,14v89.3c0,29.9-6,59.1-17.7,86.6l-16.9,39.6c-2.2,5.1,0.2,11,5.3,13.1c1.3,0.5,2.6,0.8,3.9,0.8
			c3.9,0,7.6-2.3,9.2-6.1l16.9-39.6c12.8-30,19.3-61.8,19.3-94.5V366H463c27,0,49-22,49-49v-17C512,294.5,507.5,290,502,290z
			 M73.1,346H49c-16,0-29-13-29-29v-7h77.7L73.1,346z M99,198v22h-7c-9.9,0-18-8.1-18-18s8.1-18,18-18h10.1
			C100.1,188.3,99,193,99,198z M164.1,184h35.6c9.9,0,18,8.1,18,18s-8.1,18-18,18h-32.5v-22C167.1,193,166,188.3,164.1,184z
			 M277.3,248.5c-9.4,0-17.9,3.8-24.1,10c-6.2-6.1-14.6-9.9-24-9.9c-9.4,0-17.9,3.8-24,10c-6.2-6.2-14.7-10-24-10c-5,0-9.8,1.1-14,3
			V240h32.5c21,0,38-17,38-38s-17-38-38-38H92c-21,0-38,17-38,38s17,38,38,38h7v50H38V50c0-16.5,13.5-30,30-30h376
			c16.5,0,30,13.5,30,30v196h-86c-5.5,0-10,4.5-10,10c0,5.5,4.5,10,10,10h86v24H311.4v-7.4C311.4,263.8,296.1,248.5,277.3,248.5z
			 M492,317c0,16-13,29-29,29H311.4v-36H492V317z"/>
	</g>
</g>
<g>
	<g>
		<path d="M355.2,248.9c-1.9-1.9-4.4-2.9-7.1-2.9c-2.6,0-5.2,1.1-7.1,2.9c-1.9,1.9-2.9,4.4-2.9,7.1c0,2.6,1.1,5.2,2.9,7.1
			c1.9,1.9,4.4,2.9,7.1,2.9c2.6,0,5.2-1.1,7.1-2.9c1.9-1.9,2.9-4.4,2.9-7.1C358.1,253.4,357.1,250.8,355.2,248.9z"/>
	</g>
</g>
<g>
	<g>
		<path class="st0" d="M179.2,112.9c-1.9-1.9-4.4-2.9-7.1-2.9c-2.6,0-5.2,1.1-7.1,2.9c-1.9,1.9-2.9,4.4-2.9,7.1s1.1,5.2,2.9,7.1
			c1.9,1.9,4.4,2.9,7.1,2.9s5.2-1.1,7.1-2.9c1.9-1.9,2.9-4.4,2.9-7.1C182.2,117.4,181.1,114.8,179.2,112.9z"/>
	</g>
</g>
<g>
	<g>
		<path class="st0" d="M136,110H64c-5.5,0-10,4.5-10,10s4.5,10,10,10h72c5.5,0,10-4.5,10-10C146,114.5,141.5,110,136,110z"/>
	</g>
</g>
<g>
	<g>
		<path class="st0" d="M227.6,54H64.1c-5.5,0-10,4.5-10,10s4.5,10,10,10h163.6c5.5,0,10-4.5,10-10S233.2,54,227.6,54z"/>
	</g>
</g>
<g>
	<g>
		<path class="st0" d="M428,125.6v-15.1c0-11-9-20-20-20h-35.2c-3.6,0-7.1,1-10,2.7c-2.9-1.7-6.4-2.7-10-2.7h-35.2c-11,0-20,9-20,20
			v14.7c-18,4.4-31.4,20.7-31.4,40.1V198c0,5.5,4.5,10,10,10H448c5.5,0,10-4.5,10-10v-32.8C458,146.4,445.3,130.5,428,125.6z
			 M372.8,110.5H408V124h-35.2V110.5z M317.7,110.5h35.2V124h-35.2V110.5z M438,188L438,188H286.3v-22.8c0-11.7,9.5-21.3,21.3-21.3
			h0.2h55.2h53.9c11.7,0,21.3,9.5,21.3,21.3L438,188L438,188z"/>
	</g>
</g>
</svg>
