<?xml version="1.0" encoding="utf-8"?>
<!-- Generator: Adobe Illustrator 24.1.0, SVG Export Plug-In . SVG Version: 6.00 Build 0)  -->
<svg version="1.1" id="Layer_1" xmlns="http://www.w3.org/2000/svg" xmlns:xlink="http://www.w3.org/1999/xlink" x="0px" y="0px"
	 viewBox="0 0 682 682" style="enable-background:new 0 0 682 682;" xml:space="preserve">
<style type="text/css">
	.st0{fill:#FF8767;}
</style>
<path class="st0" d="M658.1,314.4c-6.4-20.5-25.7-34.1-47.2-33.3l-4.6,0.2c-13.4,0.5-26,6.1-35.5,15.5l-70.6,69.9
	c-1.7-2.6-3.6-5-5.8-7.3c-9.3-9.7-22.3-15.2-35.7-15.2h-99.6c-18.8,0-37.1-2.4-54.5-7.2c-45.2-12.5-88.4-3.5-124.8,26.1
	c-15.4,12.5-26.4,26.1-33.2,35.8c-7.7-5.3-16.8-8.1-26.3-8c-12,0.2-23.2,5.1-31.5,13.7l-64.4,66.9c-4.8,4.9-4.7,12.8,0.2,17.6
	l51.8,51.1c4.9,4.9,12.9,4.8,17.7-0.1c4.9-4.9,4.8-12.9-0.1-17.7l-43-42.4l55.8-58c3.7-3.8,8.6-6,13.9-6.1
	c5.3-0.1,10.3,1.9,14.1,5.6l99.6,96.6c3.8,3.7,5.9,8.6,6,13.9c0.1,5.3-1.9,10.3-5.6,14.1l-54.9,56.3L166,589.1
	c-5-4.8-12.9-4.6-17.7,0.4c-4.8,5-4.6,12.9,0.4,17.7l23.1,22c2.4,2.3,5.5,3.5,8.6,3.5c3.3,0,6.5-1.3,9-3.8l63.5-65.1
	c8.4-8.6,12.9-19.9,12.7-31.9c-0.1-5.5-1.1-10.8-3.1-15.8l22.4-2.6c10.4-1.2,20.9-1.8,31.4-1.8h151.6c2.3,0,4.7-0.1,7-0.3l14.5-1.2
	c14.7-1.2,28.9-6.3,41.1-14.8c6-4.1,11.4-9,16.1-14.6l102.2-120.2C659.6,347.8,663.1,330.5,658.1,314.4z M629.6,344.4L527.4,464.6
	c-3.3,3.9-7.1,7.3-11.3,10.2c-8.5,5.9-18.5,9.5-28.8,10.4l-14.5,1.2c-1.6,0.1-3.3,0.2-4.9,0.2H316.3c-11.4,0-22.9,0.7-34.3,2
	l-36.2,4.2l-80.1-77.3c5.5-8.1,15.5-21.1,30-32.9C226,358,260.4,350.8,298,361.2c19.5,5.4,40.1,8.1,61.2,8.1h99.6
	c6.6,0,13.1,2.7,17.7,7.5c3.4,3.5,5.5,7.8,6.4,12.2c0,1.1,0.1,2.3,0.4,3.4c0.3,5.9-1.4,11.9-5.3,16.7l-0.4,0.5
	c-4.7,5.8-11.6,9.2-19.1,9.2h-86.8c-6.9,0-12.5,5.6-12.5,12.5c0,6.9,5.6,12.5,12.5,12.5h86.8c15.1,0,29.2-6.8,38.6-18.5l0.4-0.5
	c7.2-9,10.8-19.9,10.9-30.8l80.3-79.4c5-5,11.7-8,18.8-8.2l4.6-0.2c10.1-0.4,19.2,6,22.2,15.7C636.7,329.7,634.9,338.1,629.6,344.4z
	"/>
<path class="st0" d="M120.6,442.5c-18.7,0-33.9,15.2-33.9,33.9c0,18.7,15.2,33.9,33.9,33.9s33.9-15.2,33.9-33.9
	C154.5,457.7,139.3,442.5,120.6,442.5z M120.6,485.2c-4.9,0-8.9-4-8.9-8.9c0-4.9,4-8.9,8.9-8.9c4.9,0,8.9,4,8.9,8.9
	C129.4,481.3,125.4,485.2,120.6,485.2z"/>
<path class="st0" d="M318.5,420.7l-0.6,0.2c-6.7,1.6-10.9,8.3-9.3,15.1c1.4,5.8,6.5,9.7,12.2,9.7c0.9,0,1.9-0.1,2.9-0.3l0.6-0.1
	c6.7-1.6,10.9-8.3,9.3-15.1C332,423.3,325.2,419.1,318.5,420.7z"/>
<path class="st0" d="M119,553.2l-0.6,0.2c-6.7,1.6-10.9,8.3-9.3,15.1c1.4,5.8,6.5,9.7,12.2,9.7c1,0,1.9-0.1,2.9-0.3l0.6-0.1
	c6.7-1.6,10.9-8.3,9.3-15.1C132.4,555.8,125.7,551.7,119,553.2z"/>
<path class="st0" d="M387.5,312c73.1,0,132.5-59.5,132.5-132.5S460.6,46.9,387.5,46.9c-30,0-58.3,9.8-81.8,28.2
	c-5.4,4.2-10.5,8.9-15.1,13.9c-7,7.5-13.1,15.7-18.1,24.6c-11.5,20-17.5,42.7-17.5,65.9C255,252.5,314.4,312,387.5,312z M294.2,126
	c4.1-7.2,9.1-13.9,14.7-19.9c3.8-4.1,7.9-7.8,12.3-11.3c19.1-15,42-22.9,66.3-22.9c59.3,0,107.5,48.2,107.5,107.5
	c0,59.3-48.2,107.5-107.5,107.5c-59.3,0-107.5-48.2-107.5-107.5C280,160.6,284.9,142.2,294.2,126z"/>
<path class="st0" d="M398.6,222.3c-5,3-11.6,4.1-16.1,4.1c-8.4,0-15.8-10-15.8-21.3c0-6.9-5.6-12.5-12.5-12.5
	c-6.9,0-12.5,5.6-12.5,12.5c0,21.7,13.2,39.9,31,45c0.4,6.6,5.8,11.7,12.5,11.7c6.8,0,12.4-5.5,12.5-12.3
	c18.1-4.7,33.7-18.2,33.7-41.7c0-28.2-28.8-43.6-43.6-43.6c-0.2,0-18.6-1.6-18.6-13.4c0-18.1,18.4-18.6,18.6-18.6
	c3.5,0,7.7,2.1,11.1,5.4c1.6,1.6,1.8,1.8,1.8,8.5c0,6.9,5.6,12.5,12.5,12.5c6.9,0,12.5-5.6,12.5-12.5c0-8,0-17.1-9.1-26.2
	c-5.5-5.5-12-9.4-18.9-11.3c-0.4-6.6-5.8-11.8-12.5-11.8c-6.9,0-12.5,5.6-12.5,12.5v0.8c-13.7,5.1-28.5,17.2-28.5,40.6
	c0,28.7,29.8,38.4,43.5,38.4c3.8,0.3,18.7,6.9,18.7,18.6C406.3,214.6,403.9,219.1,398.6,222.3z"/>
</svg>
